<svg width="198" height="203" viewBox="0 0 198 203" fill="none" xmlns="http://www.w3.org/2000/svg">
<g clip-path="url(#clip0_1397_5237)">
<path d="M77.1748 191.574H0.759766V202.238H348.239V191.574H164.235H77.1748Z" fill="white"/>
<path d="M185.525 190.812V191.574H348.24V202.238H0.760349V191.574H15.207V190.812H0V203H349V190.812H185.525ZM41.0588 191.574H50.5632C49.7268 191.574 49.0425 191.27 48.4342 190.812H41.0588V191.574ZM77.1754 191.574H164.235V190.812H79.3044C78.6961 191.27 78.0118 191.574 77.1754 191.574ZM64.4015 190.812H63.337C62.7288 191.27 62.0444 191.574 61.2081 191.574H66.5305C65.6941 191.574 65.0098 191.27 64.4015 190.812Z" fill="#BDC3C6"/>
<path d="M164.996 168.722H184.765V190.812H164.996V168.722Z" fill="white"/>
<path d="M164.234 191.574H185.524V168.722H184.764V190.812H164.995V168.722H164.234V190.812V191.574Z" fill="#BDC3C6"/>
<path d="M91.2422 165.295C91.2422 166.742 92.4587 167.961 93.9034 167.961H254.337C255.782 167.961 256.998 166.742 256.998 165.295V153.488H91.2422V165.295Z" fill="white"/>
<path d="M164.997 168.722H254.338C256.238 168.722 257.759 167.199 257.759 165.295V153.488H256.999V165.295C256.999 166.742 255.782 167.961 254.338 167.961H93.904C92.4593 167.961 91.2428 166.742 91.2428 165.295V153.488H90.4824V165.295C90.4824 167.199 92.0031 168.722 93.904 168.722H164.997Z" fill="#BDC3C6"/>
<path d="M91.2422 152.726H256.998V54.0825C256.998 52.6353 255.782 51.4165 254.337 51.4165H93.9034C92.4587 51.4165 91.2422 52.6353 91.2422 54.0825V152.726ZM94.2836 56.7486H253.957V148.917H94.2836V56.7486Z" fill="white"/>
<path d="M91.2428 153.488H257.759V54.0826C257.759 52.1782 256.238 50.6548 254.338 50.6548H93.904C92.0031 50.6548 90.4824 52.1782 90.4824 54.0826V153.488H91.2428ZM93.904 51.4165H254.338C255.782 51.4165 256.999 52.6353 256.999 54.0826V152.726H91.2428V54.0826C91.2428 52.6353 92.4593 51.4165 93.904 51.4165Z" fill="#BDC3C6"/>
<path d="M95.043 148.156H253.195V57.5104H95.043V148.156ZM104.928 67.4128H105.308V64.7468C105.308 63.9089 105.992 63.2233 106.828 63.2233H189.706C190.543 63.2233 191.227 63.9089 191.227 64.7468V67.4128H191.607V75.4109H242.17C243.007 75.4109 243.691 76.0965 243.691 76.9344V79.6004H244.071V131.779C244.071 132.845 243.235 133.683 242.17 133.683H191.607V134.826C191.607 135.892 190.771 136.73 189.706 136.73H106.828C105.764 136.73 104.928 135.892 104.928 134.826V67.4128Z" fill="white"/>
<path d="M253.956 56.7485H94.2832V148.917H253.956V56.7485ZM253.196 148.156H95.0436V57.5103H253.196V148.156Z" fill="#BDC3C6"/>
<path d="M157.391 131.779V79.6003H157.771V76.9343C157.771 76.0964 158.456 75.4108 159.292 75.4108H190.847V68.5553H105.688V134.825C105.688 135.435 106.22 135.968 106.828 135.968H189.706C190.314 135.968 190.847 135.435 190.847 134.825V133.683H159.292C158.228 133.683 157.391 132.845 157.391 131.779ZM127.738 79.2195H142.945C143.173 79.2195 143.325 79.3718 143.325 79.6003C143.325 79.8288 143.173 79.9812 142.945 79.9812H127.738C127.51 79.9812 127.357 79.8288 127.357 79.6003C127.357 79.3718 127.51 79.2195 127.738 79.2195ZM125.837 118.829C125.837 119.667 125.152 120.353 124.316 120.353H118.994C118.157 120.353 117.473 119.667 117.473 118.829V113.497C117.473 112.659 118.157 111.974 118.994 111.974H124.316C125.152 111.974 125.837 112.659 125.837 113.497V118.829ZM125.837 107.403C125.837 108.241 125.152 108.927 124.316 108.927H118.994C118.157 108.927 117.473 108.241 117.473 107.403V102.071C117.473 101.233 118.157 100.548 118.994 100.548H124.316C125.152 100.548 125.837 101.233 125.837 102.071V107.403ZM125.837 95.9774C125.837 96.8153 125.152 97.5009 124.316 97.5009H118.994C118.157 97.5009 117.473 96.8153 117.473 95.9774V90.6454C117.473 89.8075 118.157 89.1219 118.994 89.1219H124.316C125.152 89.1219 125.837 89.8075 125.837 90.6454V95.9774ZM125.837 84.5515C125.837 85.3894 125.152 86.075 124.316 86.075H118.994C118.157 86.075 117.473 85.3894 117.473 84.5515V79.2195C117.473 78.3816 118.157 77.696 118.994 77.696H124.316C125.152 77.696 125.837 78.3816 125.837 79.2195V84.5515ZM152.069 118.829H127.738C127.51 118.829 127.357 118.677 127.357 118.448C127.357 118.22 127.51 118.067 127.738 118.067H152.069C152.297 118.067 152.449 118.22 152.449 118.448C152.449 118.677 152.297 118.829 152.069 118.829ZM152.069 116.544H127.738C127.51 116.544 127.357 116.392 127.357 116.163C127.357 115.935 127.51 115.782 127.738 115.782H152.069C152.297 115.782 152.449 115.935 152.449 116.163C152.449 116.392 152.297 116.544 152.069 116.544ZM127.357 113.878C127.357 113.649 127.51 113.497 127.738 113.497H142.945C143.173 113.497 143.325 113.649 143.325 113.878C143.325 114.107 143.173 114.259 142.945 114.259H127.738C127.51 114.259 127.357 114.107 127.357 113.878ZM152.069 107.403H127.738C127.51 107.403 127.357 107.251 127.357 107.022C127.357 106.794 127.51 106.642 127.738 106.642H152.069C152.297 106.642 152.449 106.794 152.449 107.022C152.449 107.251 152.297 107.403 152.069 107.403ZM152.069 105.118H127.738C127.51 105.118 127.357 104.966 127.357 104.737C127.357 104.509 127.51 104.356 127.738 104.356H152.069C152.297 104.356 152.449 104.509 152.449 104.737C152.449 104.966 152.297 105.118 152.069 105.118ZM127.357 102.452C127.357 102.224 127.51 102.071 127.738 102.071H142.945C143.173 102.071 143.325 102.224 143.325 102.452C143.325 102.681 143.173 102.833 142.945 102.833H127.738C127.51 102.833 127.357 102.681 127.357 102.452ZM152.069 95.9774H127.738C127.51 95.9774 127.357 95.8251 127.357 95.5966C127.357 95.3681 127.51 95.2157 127.738 95.2157H152.069C152.297 95.2157 152.449 95.3681 152.449 95.5966C152.449 95.8251 152.297 95.9774 152.069 95.9774ZM152.069 93.6923H127.738C127.51 93.6923 127.357 93.5399 127.357 93.3114C127.357 93.0829 127.51 92.9305 127.738 92.9305H152.069C152.297 92.9305 152.449 93.0829 152.449 93.3114C152.449 93.5399 152.297 93.6923 152.069 93.6923ZM127.357 91.0262C127.357 90.7977 127.51 90.6454 127.738 90.6454H142.945C143.173 90.6454 143.325 90.7977 143.325 91.0262C143.325 91.2547 143.173 91.4071 142.945 91.4071H127.738C127.51 91.4071 127.357 91.2547 127.357 91.0262ZM152.069 84.5515H127.738C127.51 84.5515 127.357 84.3992 127.357 84.1707C127.357 83.9422 127.51 83.7898 127.738 83.7898H152.069C152.297 83.7898 152.449 83.9422 152.449 84.1707C152.449 84.3992 152.297 84.5515 152.069 84.5515ZM152.069 82.2664H127.738C127.51 82.2664 127.357 82.114 127.357 81.8855C127.357 81.657 127.51 81.5046 127.738 81.5046H152.069C152.297 81.5046 152.449 81.657 152.449 81.8855C152.449 82.114 152.297 82.2664 152.069 82.2664Z" fill="#F5F8FB"/>
<path d="M106.829 136.73H189.707C190.771 136.73 191.607 135.892 191.607 134.825V133.683H190.847V134.825C190.847 135.435 190.315 135.968 189.707 135.968H106.829C106.22 135.968 105.688 135.435 105.688 134.825V68.5553H105.308V67.4127H104.928V134.825C104.928 135.892 105.764 136.73 106.829 136.73ZM191.227 68.5553H190.847V75.4108H191.607V67.4127H191.227V67.7936V68.5553Z" fill="#BDC3C6"/>
<path d="M105.309 68.5553H191.228V64.7467C191.228 63.9088 190.544 63.2233 189.707 63.2233H106.829C105.993 63.2233 105.309 63.9088 105.309 64.7467V68.5553ZM116.334 64.7467C116.942 64.7467 117.474 65.2799 117.474 65.8893C117.474 66.4987 116.942 67.0319 116.334 67.0319C115.725 67.0319 115.193 66.4987 115.193 65.8893C115.193 65.2799 115.725 64.7467 116.334 64.7467ZM112.532 64.7467C113.14 64.7467 113.672 65.2799 113.672 65.8893C113.672 66.4987 113.14 67.0319 112.532 67.0319C111.924 67.0319 111.391 66.4987 111.391 65.8893C111.391 65.2799 111.924 64.7467 112.532 64.7467ZM108.73 64.7467C109.338 64.7467 109.871 65.2799 109.871 65.8893C109.871 66.4987 109.338 67.0319 108.73 67.0319C108.122 67.0319 107.59 66.4987 107.59 65.8893C107.59 65.2799 108.122 64.7467 108.73 64.7467Z" fill="#565656"/>
<path d="M108.73 67.0319C109.36 67.0319 109.871 66.5203 109.871 65.8893C109.871 65.2583 109.36 64.7467 108.73 64.7467C108.1 64.7467 107.59 65.2583 107.59 65.8893C107.59 66.5203 108.1 67.0319 108.73 67.0319Z" fill="white"/>
<path d="M112.531 67.0319C113.161 67.0319 113.672 66.5203 113.672 65.8893C113.672 65.2583 113.161 64.7467 112.531 64.7467C111.901 64.7467 111.391 65.2583 111.391 65.8893C111.391 66.5203 111.901 67.0319 112.531 67.0319Z" fill="white"/>
<path d="M116.334 67.0319C116.964 67.0319 117.474 66.5203 117.474 65.8893C117.474 65.2583 116.964 64.7467 116.334 64.7467C115.704 64.7467 115.193 65.2583 115.193 65.8893C115.193 66.5203 115.704 67.0319 116.334 67.0319Z" fill="white"/>
<path d="M124.318 77.696H118.995C118.159 77.696 117.475 78.3816 117.475 79.2195V84.5516C117.475 85.3895 118.159 86.075 118.995 86.075H124.318C125.154 86.075 125.838 85.3895 125.838 84.5516V79.2195C125.838 78.3816 125.154 77.696 124.318 77.696ZM127.739 79.9812H142.946C143.174 79.9812 143.326 79.8289 143.326 79.6004C143.326 79.3718 143.174 79.2195 142.946 79.2195H127.739C127.511 79.2195 127.359 79.3718 127.359 79.6004C127.359 79.8289 127.511 79.9812 127.739 79.9812Z" fill="#EFC75E"/>
<path d="M152.07 81.5046H127.739C127.511 81.5046 127.359 81.657 127.359 81.8855C127.359 82.114 127.511 82.2664 127.739 82.2664H152.07C152.299 82.2664 152.451 82.114 152.451 81.8855C152.451 81.657 152.299 81.5046 152.07 81.5046ZM152.07 83.7898H127.739C127.511 83.7898 127.359 83.9422 127.359 84.1707C127.359 84.3992 127.511 84.5515 127.739 84.5515H152.07C152.299 84.5515 152.451 84.3992 152.451 84.1707C152.451 83.9422 152.299 83.7898 152.07 83.7898ZM124.318 89.1219H118.995C118.159 89.1219 117.475 89.8075 117.475 90.6454V95.9774C117.475 96.8153 118.159 97.5009 118.995 97.5009H124.318C125.154 97.5009 125.838 96.8153 125.838 95.9774V90.6454C125.838 89.8075 125.154 89.1219 124.318 89.1219ZM127.739 91.4071H142.946C143.174 91.4071 143.326 91.2547 143.326 91.0262C143.326 90.7977 143.174 90.6454 142.946 90.6454H127.739C127.511 90.6454 127.359 90.7977 127.359 91.0262C127.359 91.2547 127.511 91.4071 127.739 91.4071ZM152.07 92.9305H127.739C127.511 92.9305 127.359 93.0829 127.359 93.3114C127.359 93.5399 127.511 93.6923 127.739 93.6923H152.07C152.299 93.6923 152.451 93.5399 152.451 93.3114C152.451 93.0829 152.299 92.9305 152.07 92.9305ZM152.07 95.2157H127.739C127.511 95.2157 127.359 95.3681 127.359 95.5966C127.359 95.8251 127.511 95.9774 127.739 95.9774H152.07C152.299 95.9774 152.451 95.8251 152.451 95.5966C152.451 95.3681 152.299 95.2157 152.07 95.2157ZM124.318 100.548H118.995C118.159 100.548 117.475 101.233 117.475 102.071V107.403C117.475 108.241 118.159 108.927 118.995 108.927H124.318C125.154 108.927 125.838 108.241 125.838 107.403V102.071C125.838 101.233 125.154 100.548 124.318 100.548ZM127.739 102.833H142.946C143.174 102.833 143.326 102.681 143.326 102.452C143.326 102.224 143.174 102.071 142.946 102.071H127.739C127.511 102.071 127.359 102.224 127.359 102.452C127.359 102.681 127.511 102.833 127.739 102.833ZM152.07 104.356H127.739C127.511 104.356 127.359 104.509 127.359 104.737C127.359 104.966 127.511 105.118 127.739 105.118H152.07C152.299 105.118 152.451 104.966 152.451 104.737C152.451 104.509 152.299 104.356 152.07 104.356ZM152.07 106.642H127.739C127.511 106.642 127.359 106.794 127.359 107.022C127.359 107.251 127.511 107.403 127.739 107.403H152.07C152.299 107.403 152.451 107.251 152.451 107.022C152.451 106.794 152.299 106.642 152.07 106.642ZM124.318 111.974H118.995C118.159 111.974 117.475 112.659 117.475 113.497V118.829C117.475 119.667 118.159 120.353 118.995 120.353H124.318C125.154 120.353 125.838 119.667 125.838 118.829V113.497C125.838 112.659 125.154 111.974 124.318 111.974ZM127.739 114.259H142.946C143.174 114.259 143.326 114.107 143.326 113.878C143.326 113.649 143.174 113.497 142.946 113.497H127.739C127.511 113.497 127.359 113.649 127.359 113.878C127.359 114.107 127.511 114.259 127.739 114.259ZM152.07 115.782H127.739C127.511 115.782 127.359 115.935 127.359 116.163C127.359 116.392 127.511 116.544 127.739 116.544H152.07C152.299 116.544 152.451 116.392 152.451 116.163C152.451 115.935 152.299 115.782 152.07 115.782ZM152.07 118.067H127.739C127.511 118.067 127.359 118.22 127.359 118.448C127.359 118.677 127.511 118.829 127.739 118.829H152.07C152.299 118.829 152.451 118.677 152.451 118.448C152.451 118.22 152.299 118.067 152.07 118.067Z" fill="#BDC3C6"/>
<path d="M159.293 132.921H242.171C242.779 132.921 243.311 132.388 243.311 131.779V80.7429H158.152V131.779C158.152 132.388 158.685 132.921 159.293 132.921Z" fill="white"/>
<path d="M243.692 80.7429H243.312V131.779C243.312 132.388 242.78 132.921 242.171 132.921H159.293C158.685 132.921 158.153 132.388 158.153 131.779V80.7429H157.773V79.6003H157.393V131.779C157.393 132.845 158.229 133.683 159.293 133.683H242.171C243.236 133.683 244.072 132.845 244.072 131.779V79.6003H243.692V80.7429Z" fill="#BDC3C6"/>
<path d="M190.847 75.4109H159.292C158.456 75.4109 157.771 76.0964 157.771 76.9343V80.743H243.691V76.9343C243.691 76.0964 243.007 75.4109 242.17 75.4109H190.847ZM168.797 76.9343C169.405 76.9343 169.937 77.4675 169.937 78.0769C169.937 78.6863 169.405 79.2195 168.797 79.2195C168.188 79.2195 167.656 78.6863 167.656 78.0769C167.656 77.4675 168.188 76.9343 168.797 76.9343ZM164.995 76.9343C165.603 76.9343 166.135 77.4675 166.135 78.0769C166.135 78.6863 165.603 79.2195 164.995 79.2195C164.387 79.2195 163.854 78.6863 163.854 78.0769C163.854 77.4675 164.387 76.9343 164.995 76.9343ZM161.193 76.9343C161.801 76.9343 162.334 77.4675 162.334 78.0769C162.334 78.6863 161.801 79.2195 161.193 79.2195C160.585 79.2195 160.053 78.6863 160.053 78.0769C160.053 77.4675 160.585 76.9343 161.193 76.9343Z" fill="#565656"/>
<path d="M161.193 79.2195C161.823 79.2195 162.334 78.7079 162.334 78.0769C162.334 77.4459 161.823 76.9343 161.193 76.9343C160.563 76.9343 160.053 77.4459 160.053 78.0769C160.053 78.7079 160.563 79.2195 161.193 79.2195Z" fill="white"/>
<path d="M164.996 79.2195C165.626 79.2195 166.137 78.7079 166.137 78.0769C166.137 77.4459 165.626 76.9343 164.996 76.9343C164.366 76.9343 163.855 77.4459 163.855 78.0769C163.855 78.7079 164.366 79.2195 164.996 79.2195Z" fill="white"/>
<path d="M168.797 79.2195C169.427 79.2195 169.937 78.7079 169.937 78.0769C169.937 77.4459 169.427 76.9343 168.797 76.9343C168.167 76.9343 167.656 77.4459 167.656 78.0769C167.656 78.7079 168.167 79.2195 168.797 79.2195Z" fill="white"/>
<path d="M63.1093 154.63H47.9023V188.146C47.9023 189.594 49.1189 190.812 50.5636 190.812H61.2084C62.1209 190.812 62.9572 190.355 63.4135 189.594C63.1854 189.137 63.1093 188.679 63.1093 188.146V154.63ZM55.886 186.242C53.605 186.242 51.7041 184.338 51.7041 182.052C51.7041 179.767 53.605 177.863 55.886 177.863C58.167 177.863 60.0679 179.767 60.0679 182.052C60.0679 184.338 58.167 186.242 55.886 186.242ZM63.1093 137.872C63.1093 137.339 63.2614 136.882 63.4135 136.425C62.9572 135.663 62.1209 135.206 61.2084 135.206H50.5636C49.1189 135.206 47.9023 136.425 47.9023 137.872V148.537H63.1093V137.872Z" fill="white"/>
<path d="M50.5641 191.574H61.209C62.0454 191.574 62.7297 191.269 63.338 190.812C63.5661 190.66 63.7182 190.508 63.8702 190.279C63.7182 190.051 63.5661 189.822 63.414 189.594C62.9578 190.355 62.1214 190.812 61.209 190.812H50.5641C49.1195 190.812 47.9029 189.594 47.9029 188.146V137.872C47.9029 136.425 49.1195 135.206 50.5641 135.206H61.209C62.1214 135.206 62.9578 135.663 63.414 136.425C63.5661 136.197 63.6421 135.968 63.8702 135.74C63.262 134.978 62.2735 134.445 61.209 134.445H50.5641C48.6633 134.445 47.1426 135.968 47.1426 137.872V188.146C47.1426 189.213 47.6748 190.203 48.4352 190.812C49.0435 191.269 49.7278 191.574 50.5641 191.574Z" fill="#BDC3C6"/>
<path d="M63.1093 153.869V149.298H47.9023V153.869H63.1093Z" fill="#16B0C5"/>
<path d="M63.1093 148.537H47.9023V149.298H63.1093V148.537ZM63.1093 153.869H47.9023V154.63H63.1093V153.869Z" fill="#BDC3C6"/>
<path d="M55.8864 178.625C53.9855 178.625 52.4648 180.148 52.4648 182.053C52.4648 183.957 53.9855 185.48 55.8864 185.48C57.7873 185.48 59.308 183.957 59.308 182.053C59.308 180.148 57.7873 178.625 55.8864 178.625Z" fill="white"/>
<path d="M55.885 177.863C53.604 177.863 51.7031 179.767 51.7031 182.053C51.7031 184.338 53.604 186.242 55.885 186.242C58.1661 186.242 60.067 184.338 60.067 182.053C60.067 179.767 58.1661 177.863 55.885 177.863ZM55.885 185.48C53.9842 185.48 52.4635 183.957 52.4635 182.053C52.4635 180.148 53.9842 178.625 55.885 178.625C57.7859 178.625 59.3066 180.148 59.3066 182.053C59.3066 183.957 57.7859 185.48 55.885 185.48Z" fill="#BDC3C6"/>
<path d="M64.2493 154.63H63.8691V188.146C63.8691 189.594 65.0857 190.812 66.5304 190.812H77.1752C78.6199 190.812 79.8365 189.594 79.8365 188.146V154.63H64.2493ZM71.8528 177.863C74.1338 177.863 76.0347 179.767 76.0347 182.052C76.0347 184.338 74.1338 186.242 71.8528 186.242C69.5718 186.242 67.6709 184.338 67.6709 182.052C67.6709 179.767 69.5718 177.863 71.8528 177.863ZM64.2493 149.298H63.8691H79.8365H64.2493ZM79.8365 148.537V137.872C79.8365 136.425 78.6199 135.206 77.1752 135.206H66.5304C65.0857 135.206 63.8691 136.425 63.8691 137.872V148.537H79.8365Z" fill="white"/>
<path d="M63.4135 136.425C63.1854 136.882 63.1094 137.339 63.1094 137.872V188.146C63.1094 188.679 63.2614 189.137 63.4135 189.594C63.5656 189.822 63.6416 190.051 63.8697 190.279C64.0218 190.508 64.1739 190.66 64.402 190.812C65.0102 191.269 65.6946 191.574 66.5309 191.574H77.1758C78.0122 191.574 78.6965 191.269 79.3048 190.812C80.0652 190.203 80.5974 189.213 80.5974 188.146V137.872C80.5974 135.968 79.0767 134.445 77.1758 134.445H66.5309C65.4665 134.445 64.478 134.978 63.8697 135.74C63.7177 135.968 63.5656 136.197 63.4135 136.425ZM80.2172 149.298H79.837V153.869H80.2172V154.63H79.837V188.146C79.837 189.594 78.6205 190.812 77.1758 190.812H66.5309C65.0863 190.812 63.8697 189.594 63.8697 188.146V137.872C63.8697 136.425 65.0863 135.206 66.5309 135.206H77.1758C78.6205 135.206 79.837 136.425 79.837 137.872V148.537H80.2172V149.298Z" fill="#BDC3C6"/>
<path d="M63.8691 149.298V153.869H79.8365V149.298H63.8691Z" fill="#EFC75E"/>
<path d="M64.2493 148.537H63.8691V149.298H80.2166V148.537H79.8365H64.2493ZM64.2493 153.869H63.8691V154.63H80.2166V153.869H79.8365H64.2493Z" fill="#BDC3C6"/>
<path d="M71.8532 185.48C73.7541 185.48 75.2748 183.957 75.2748 182.053C75.2748 180.148 73.7541 178.625 71.8532 178.625C69.9523 178.625 68.4316 180.148 68.4316 182.053C68.4316 183.957 69.9523 185.48 71.8532 185.48Z" fill="white"/>
<path d="M71.8538 186.242C74.1348 186.242 76.0357 184.338 76.0357 182.053C76.0357 179.767 74.1348 177.863 71.8538 177.863C69.5727 177.863 67.6719 179.767 67.6719 182.053C67.6719 184.338 69.5727 186.242 71.8538 186.242ZM71.8538 178.625C73.7547 178.625 75.2754 180.148 75.2754 182.053C75.2754 183.957 73.7547 185.48 71.8538 185.48C69.9529 185.48 68.4322 183.957 68.4322 182.053C68.4322 180.148 69.9529 178.625 71.8538 178.625Z" fill="#BDC3C6"/>
<path d="M32.3152 44.1801C44.0245 44.1801 53.6049 34.5823 53.6049 22.8518C53.6049 11.1212 44.0245 1.52344 32.3152 1.52344C20.6058 1.52344 11.0254 11.1212 11.0254 22.8518C11.0254 34.5823 20.6058 44.1801 32.3152 44.1801ZM32.3152 5.71293C41.7435 5.71293 49.423 13.4064 49.423 22.8518C49.423 32.2972 41.7435 39.9906 32.3152 39.9906C22.8868 39.9906 15.2073 32.2972 15.2073 22.8518C15.2073 13.4064 22.8868 5.71293 32.3152 5.71293Z" fill="white"/>
<path d="M32.3144 45.7036C44.8601 45.7036 55.1248 35.4203 55.1248 22.8518C55.1248 10.2833 44.8601 0 32.3144 0C19.7686 0 9.50391 10.2833 9.50391 22.8518C9.50391 35.4203 19.7686 45.7036 32.3144 45.7036ZM32.3144 1.52345C44.0237 1.52345 53.6041 11.1212 53.6041 22.8518C53.6041 34.5824 44.0237 44.1801 32.3144 44.1801C20.605 44.1801 11.0246 34.5824 11.0246 22.8518C11.0246 11.1212 20.605 1.52345 32.3144 1.52345Z" fill="#BDC3C6"/>
<path d="M32.3143 39.229C41.3624 39.229 48.6618 31.9164 48.6618 22.8518C48.6618 13.7873 41.3624 6.47473 32.3143 6.47473C23.2661 6.47473 15.9668 13.7873 15.9668 22.8518C15.9668 31.9164 23.2661 39.229 32.3143 39.229ZM31.5539 11.0451C31.5539 10.8166 31.706 10.6642 31.9341 10.6642C32.1622 10.6642 32.3143 10.8166 32.3143 11.0451V22.8518H44.0997C44.3278 22.8518 44.4799 23.0042 44.4799 23.2327C44.4799 23.4612 44.3278 23.6136 44.0997 23.6136H31.9341C31.706 23.6136 31.5539 23.4612 31.5539 23.2327V11.0451Z" fill="white"/>
<path d="M32.3149 39.9906C41.7432 39.9906 49.4227 32.2971 49.4227 22.8517C49.4227 13.4063 41.7432 5.71289 32.3149 5.71289C22.8866 5.71289 15.207 13.4063 15.207 22.8517C15.207 32.2971 22.8866 39.9906 32.3149 39.9906ZM32.3149 6.47462C41.363 6.47462 48.6624 13.7872 48.6624 22.8517C48.6624 31.9163 41.363 39.2288 32.3149 39.2288C23.2667 39.2288 15.9674 31.9163 15.9674 22.8517C15.9674 13.7872 23.2667 6.47462 32.3149 6.47462Z" fill="#BDC3C6"/>
<path d="M31.9349 22.8518H32.315V11.045C32.315 10.8165 32.163 10.6642 31.9349 10.6642C31.7068 10.6642 31.5547 10.8165 31.5547 11.045V23.2327C31.5547 23.0041 31.7068 22.8518 31.9349 22.8518ZM31.9349 23.6135H44.1004C44.3285 23.6135 44.4806 23.4612 44.4806 23.2327C44.4806 23.0041 44.3285 22.8518 44.1004 22.8518H31.9349C31.7068 22.8518 31.5547 23.0041 31.5547 23.2327C31.5547 23.4612 31.7068 23.6135 31.9349 23.6135Z" fill="#BCC2C5"/>
<path d="M62.2732 123.019C63.3377 123.019 64.4782 122.714 65.3906 122.181C67.8997 120.657 68.9642 117.61 68.1278 114.944C67.0634 115.554 65.9989 116.239 64.8584 116.849C62.0451 118.525 59.688 119.896 57.7871 121.038C58.9276 122.257 60.5244 123.019 62.2732 123.019Z" fill="white"/>
<path d="M68.1266 114.868C69.039 117.534 67.9745 120.657 65.3894 122.105C64.4769 122.638 63.3364 122.943 62.2719 122.943C60.5231 122.943 58.9264 122.181 57.7859 120.962C57.5578 121.114 57.3297 121.191 57.1016 121.343C58.3942 122.79 60.295 123.704 62.2719 123.704C63.4885 123.704 64.705 123.4 65.7695 122.714C68.6589 120.962 69.8754 117.458 68.8109 114.411C68.5828 114.64 68.3547 114.792 68.1266 114.868Z" fill="#BDC3C6"/>
<path d="M43.6448 102.833L17.793 125.837C18.1731 126.066 18.5533 126.294 18.8575 126.599L44.4052 103.976L43.6448 102.833Z" fill="white"/>
<path d="M44.4037 103.899L18.8559 126.523C19.008 126.675 19.2361 126.904 19.3882 127.056L44.7838 104.509L44.4037 103.899ZM17.7915 125.837L43.6433 102.833L43.1871 102.224L16.9551 125.532C17.2592 125.609 17.5634 125.685 17.7915 125.837Z" fill="#BDC3C6"/>
<path d="M15.5876 135.206C15.5116 135.206 15.5116 135.206 15.4355 135.206L27.4491 180.986C27.7532 180.91 28.1334 180.91 28.4375 180.91C28.5135 180.91 28.6656 180.91 28.7416 180.91L16.7281 135.054C16.348 135.13 15.9678 135.206 15.5876 135.206Z" fill="white"/>
<path d="M16.7268 135.054L28.8163 180.91C29.1205 180.91 29.3486 180.986 29.6527 180.986L17.4871 134.825C17.183 134.902 16.9549 134.978 16.7268 135.054ZM27.5237 180.986L15.5102 135.206C15.2061 135.206 14.978 135.206 14.6738 135.13L26.7634 181.138C26.9915 181.062 27.2196 181.062 27.5237 180.986Z" fill="#BDC3C6"/>
<path d="M15.5862 134.445C17.8673 134.445 19.7681 132.54 19.7681 130.255C19.7681 127.97 17.8673 126.066 15.5862 126.066C13.3052 126.066 11.4043 127.97 11.4043 130.255C11.4043 132.54 13.3052 134.445 15.5862 134.445Z" fill="white"/>
<path d="M15.4349 135.206C15.5109 135.206 15.5109 135.206 15.5869 135.206C15.9671 135.206 16.3473 135.13 16.7275 135.054C16.9556 134.978 17.1837 134.902 17.4878 134.826C19.3126 134.064 20.6052 132.312 20.6052 130.255C20.6052 129.036 20.149 127.97 19.4647 127.132C19.3126 126.904 19.0845 126.751 18.9325 126.599C18.6283 126.294 18.2482 126.066 17.868 125.837C17.6399 125.685 17.3357 125.609 17.1076 125.532C16.6514 125.38 16.1952 125.304 15.663 125.304C12.9257 125.304 10.7207 127.513 10.7207 130.255C10.7207 132.693 12.4695 134.673 14.7506 135.13C14.9026 135.13 15.2068 135.206 15.4349 135.206ZM15.5869 126.066C17.868 126.066 19.7689 127.97 19.7689 130.255C19.7689 132.54 17.868 134.445 15.5869 134.445C13.3059 134.445 11.405 132.54 11.405 130.255C11.405 127.97 13.3059 126.066 15.5869 126.066Z" fill="#BDC3C6"/>
<path d="M53.377 102.376C55.2778 101.31 57.3308 100.548 59.3837 100.167L51.9323 88.8934L40.375 96.5107L47.6743 107.632C49.195 105.499 51.0959 103.671 53.377 102.376Z" fill="white"/>
<path d="M43.6447 102.833L44.329 103.899L44.7852 104.509L47.2943 108.317C47.4464 108.089 47.5985 107.86 47.7506 107.632L40.4512 96.5107L52.0085 88.8934L59.4599 100.167C59.7641 100.091 59.9922 100.091 60.2963 100.015L52.2366 87.827L39.3867 96.3584L43.2645 102.224L43.6447 102.833Z" fill="#BDC3C6"/>
<path d="M64.553 116.163C73.297 110.983 76.1103 109.308 77.0227 108.774C73.9053 103.747 68.3547 100.624 62.424 100.624C59.3826 100.624 56.4173 101.462 53.756 102.985C49.8022 105.271 46.9889 109.003 45.8484 113.421C44.7079 117.763 45.3162 122.257 47.5212 126.066C49.1939 125.228 57.6338 120.2 64.553 116.163Z" fill="white"/>
<path d="M59.4599 100.167C57.3309 100.548 55.278 101.233 53.4531 102.376C51.1721 103.747 49.2712 105.499 47.8266 107.632C47.6745 107.86 47.5224 108.089 47.3703 108.317C46.4579 109.841 45.6976 111.517 45.2414 113.269C44.0248 117.915 44.7091 122.714 47.1422 126.827L47.2183 126.98H47.4464C47.5985 126.98 47.6745 126.98 57.1788 121.343C57.4069 121.191 57.6351 121.114 57.8632 120.962C59.8401 119.82 62.1971 118.372 64.9344 116.773C65.9989 116.163 67.1394 115.478 68.2039 114.868C68.432 114.716 68.6601 114.64 68.8882 114.487C73.2982 111.821 77.176 109.612 77.7083 109.308H78.3165L78.0124 108.698C74.8189 103.29 68.8882 99.8623 62.5773 99.8623C61.817 99.8623 61.1327 99.9385 60.3723 100.015C59.9921 100.091 59.688 100.091 59.4599 100.167ZM45.9257 113.497C47.0662 109.079 49.8795 105.347 53.8333 103.062C56.4945 101.538 59.4599 100.7 62.5013 100.7C68.432 100.7 73.9825 103.823 77.1 108.851C76.1876 109.384 73.3743 110.984 64.6303 116.239C57.7111 120.353 49.2712 125.304 47.5985 126.294C45.3934 122.257 44.7852 117.839 45.9257 113.497Z" fill="#BDC3C6"/>
<path d="M28.5132 181.672C25.3197 181.672 22.8105 184.185 22.8105 187.385V187.765H34.2158V187.385C34.2158 184.185 31.7066 181.672 28.5132 181.672Z" fill="white"/>
<path d="M22.811 187.765V187.385C22.811 184.262 25.3201 181.672 28.5136 181.672C31.631 181.672 34.2162 184.185 34.2162 187.385V187.765H34.9766V187.385C34.9766 184.185 32.6955 181.519 29.5781 181.062C29.35 180.986 29.0459 180.986 28.7417 180.986C28.6657 180.986 28.5136 180.986 28.4376 180.986C28.1334 180.986 27.7533 180.986 27.4491 181.062C27.221 181.138 26.9169 181.138 26.6888 181.215C23.9515 181.976 21.9746 184.49 21.9746 187.385V187.765H22.811Z" fill="#BDC3C6"/>
<path d="M40.298 188.527H15.9668V190.812H40.298V188.527Z" fill="white"/>
<path d="M15.207 191.574H41.0589V187.765H15.207V191.574ZM15.9674 188.527H40.2985V190.812H15.9674V188.527Z" fill="#BDC3C6"/>
</g>
<defs>
<clipPath id="clip0_1397_5237">
<rect width="349" height="203" fill="white"/>
</clipPath>
</defs>
</svg>
