<svg width="179" height="32" viewBox="0 0 179 32" fill="none" xmlns="http://www.w3.org/2000/svg">
<path d="M21.4708 0H31.6499C32.0494 0.284693 32.186 0.39043 32.2501 0.900871C32.3941 2.04881 32.2526 3.25807 32.2839 4.4226C34.5631 4.42299 36.9275 4.36879 39.2008 4.48306C39.5444 4.50033 39.9941 5.02136 39.9551 5.38028C40.0132 11.1502 39.9607 16.9395 39.9764 22.7113C39.9791 23.6948 38.9905 23.8288 38.1712 23.7634C36.8791 23.6603 34.8353 24.1148 33.7886 23.228C33.3195 22.8305 33.7567 21.8965 34.3156 21.8486C35.4844 21.7239 36.7769 21.8059 37.9595 21.7993L37.9561 6.37512L23.0886 6.37754C20.4871 6.37816 17.6772 6.3268 15.0896 6.39483L15.0939 21.6228L23.6312 21.6271C25.106 21.6273 27.0877 21.5743 28.5258 21.6657C30.0281 22.9881 31.6797 25.3581 33.0357 26.9004C33.7961 27.7652 32.5254 29.1389 31.599 28.1699C30.1966 26.7269 28.9193 25.1178 27.623 23.573L22.8368 23.5767L20.8352 23.5717C19.7967 23.5776 13.9942 23.832 13.487 23.3307C13.2726 23.1188 13.2108 22.541 13.1845 22.2542C13.0938 21.2654 13.1574 20.2271 13.159 19.2334L13.1716 13.4996L13.1747 11.5252L13.1716 9.75213L13.1743 7.78639C13.1613 7.18051 12.9491 5.23566 13.3852 4.78608C14.0198 4.13196 19.6543 4.42306 20.8338 4.42811C20.8528 3.25515 20.7158 2.02654 20.8651 0.871616C20.9271 0.39202 21.0963 0.26377 21.4708 0ZM22.8404 4.42402L30.3092 4.42855L30.3101 1.9192L22.8359 1.9218L22.8404 4.42402Z" fill="#15B0C4"/>
<path d="M13.1745 7.78634L13.1718 9.75208C11.7398 9.70935 9.83209 9.68032 8.39827 9.75122L8.40593 11.5327L13.1749 11.5251L13.1718 13.4995C9.73352 13.3838 5.39061 13.4693 1.92645 13.4949L1.94272 26.1351C2.54967 26.1261 4.99861 26.0619 5.1503 26.2228C6.9811 28.164 3.46009 28.1893 2.4821 28.0983C1.49962 28.0068 0.994497 28.2271 0.314097 27.8418C0.225485 27.7374 0.0826482 27.5323 0.0754992 27.4033C-0.00915967 25.8783 0.0337343 24.0693 0.0312364 22.5495L0.0230156 16.2943C0.0224509 15.1884 -0.136378 12.5386 0.388314 11.7001C0.894392 11.3831 5.56719 11.525 6.4309 11.5267C6.41588 10.7502 6.2995 8.84625 6.58011 8.23676C7.35128 7.49175 11.962 7.78598 13.1745 7.78634Z" fill="#0E70B8"/>
<path d="M20.8353 23.5717L22.8369 23.5767C22.8501 24.488 23.1365 27.0091 22.5258 27.6707C22.0557 28.18 12.1399 27.9439 10.5575 27.9665C9.62011 29.0441 7.98435 31.1143 7.05747 32H6.10895C6.07039 31.9646 6.0323 31.9285 5.99497 31.8918C4.97392 30.8878 6.17451 29.9774 6.8786 29.2083C7.51837 28.5096 9.01191 26.227 9.86778 26.0705C10.9409 25.8744 12.6719 25.9555 13.8196 25.9565L20.8355 25.965L20.8353 23.5717Z" fill="#0E70B8"/>
<path d="M72.5636 12.275C73.9147 12.1499 75.1478 12.7366 76.1968 13.5132L76.1781 12.4353C76.9267 12.4485 77.697 12.4299 78.4471 12.4213C78.4199 13.9044 78.1963 20.4559 78.6249 21.4359C78.7184 21.6498 78.8181 21.7702 79.0442 21.8508C79.5055 22.0153 80.1027 21.6901 80.5073 21.4883C80.544 22.0829 80.6105 22.7242 80.6613 23.3218C79.2695 23.8474 77.6271 24.2738 76.6047 22.8787C76.4623 22.5452 76.4015 22.2026 76.0739 22.4912C74.3856 24.1149 70.9419 24.2707 69.2316 22.5662C65.6866 19.0333 67.1399 12.6318 72.5636 12.275ZM73.459 21.8335C74.572 21.7412 75.3666 21.3378 76.1937 20.5951C76.197 18.9968 76.2519 16.9806 76.1646 15.417C74.9654 14.4587 74.0954 14.1272 72.5292 14.2753C68.1627 15.4687 68.7944 21.8659 73.459 21.8335Z" fill="black"/>
<path d="M113.527 9.14236L116.119 9.14613C116.363 9.70247 116.598 10.304 116.818 10.8731C118.461 15.1143 120.251 19.3224 121.849 23.5787L119.595 23.5737C119.152 22.5596 118.723 21.44 118.304 20.4094L115.896 20.4038L111.157 20.4081C110.737 21.4736 110.299 22.5313 109.842 23.5809L107.578 23.5735C108.041 22.2003 109.008 20.0566 109.584 18.667L113.527 9.14236ZM111.753 18.6826L114.747 18.6809L117.704 18.6749C117.304 17.6507 115.337 12.1686 114.819 11.437C113.862 13.8277 112.779 16.3132 111.753 18.6826Z" fill="black"/>
<path d="M98.6105 12.1789C102.828 12.0476 104.852 14.6812 103.841 18.7732C101.198 18.7075 98.2324 18.7561 95.5805 18.777C96.1452 22.5892 100.092 22.6379 102.791 20.9285L102.909 20.8314L103.058 20.8579C103.392 21.2224 103.702 21.9317 103.931 22.3955C97.5903 26.839 90.1264 21.1134 94.545 14.2169C95.3585 12.9476 97.1768 12.3447 98.6105 12.1789ZM95.5805 17.0256L99.244 17.0275L101.892 17.0232C101.929 15.1542 101.193 14.0887 99.2115 14.0568C98.9397 14.0522 98.6679 14.0621 98.398 14.0863C96.6256 14.5397 96.0763 15.3148 95.5805 17.0256Z" fill="black"/>
<path d="M172.959 12.1829C177.217 11.7169 178.831 15.0023 178.119 18.7724C175.465 18.7276 172.45 18.7257 169.803 18.788C170.571 22.736 174.27 22.564 177.139 20.8678L177.17 20.8339L177.322 20.8275C177.659 21.3057 177.935 21.8955 178.2 22.4228C176.771 23.3405 175.998 23.6707 174.197 23.8862C168.357 24.5847 165.608 18.4859 168.907 14.0719C169.793 12.8856 171.433 12.3013 172.959 12.1829ZM169.818 17.0196L173.509 17.0278L176.166 17.0299C176.15 14.7031 174.993 13.8415 172.696 14.083C170.934 14.4999 170.303 15.2958 169.818 17.0196Z" fill="black"/>
<path d="M58.6691 9.0136C58.7155 9.00554 58.7621 8.99879 58.8089 8.9934C61.1018 8.73037 63.5703 9.9209 65.3278 11.3094L64.2192 13.037C62.2113 11.3999 59.9262 10.5522 57.3529 11.4509C53.2905 12.8697 53.2254 19.6724 57.0989 21.3472C58.9094 22.1301 60.4149 21.8525 62.1983 21.1686C62.9798 20.8163 63.5524 20.3681 64.2098 19.8407L65.3162 21.5874C63.9309 22.7776 62.2382 23.5524 60.4326 23.8225C53.3171 24.8265 49.6008 17.3762 53.4031 11.6755C54.5657 9.9324 56.6694 9.2794 58.6691 9.0136Z" fill="black"/>
<path d="M154.495 12.2756C158.947 12.2526 155.505 18.9108 157.714 21.0318C157.919 21.2281 158.304 21.4987 158.579 21.5584C164.345 22.8068 163.02 15.4697 161.514 12.4496L163.91 12.4349C164.267 13.2542 164.725 14.8251 164.84 15.7002C165.098 17.2517 165.239 19.1758 164.663 20.6581C164.209 21.8585 163.293 22.8264 162.12 23.3452C160.6 24.0093 158.56 23.9378 157.174 23.3152C153.543 21.7457 155.194 17.6799 154.507 14.7668C154.285 13.8276 153.092 14.3088 152.55 14.55C152.516 13.9551 152.453 13.3355 152.399 12.7397C153.219 12.3987 153.634 12.351 154.495 12.2756Z" fill="black"/>
<path d="M86.8403 12.2744C87.8821 12.1294 90.0086 12.6812 91.0288 13.0831L90.4336 15.0267C89.1071 14.5002 86.5574 13.6522 85.1041 14.599C84.7712 14.8159 84.409 15.2916 84.3668 15.7021C84.6889 17.5604 91.1054 16.7052 91.1303 20.021C91.1532 22.9568 89.1138 23.6671 86.5957 23.8378C85.1091 23.7496 83.7922 23.4765 82.432 22.862L82.8412 20.8847C84.1006 21.4885 87.2983 22.6941 88.554 21.3062C89.9914 19.5573 86.2845 19.0991 85.2426 18.8678C82.3719 18.2302 81.2371 16.2172 83.0133 13.6959C83.7449 12.6575 85.5838 12.3598 86.8403 12.2744Z" fill="black"/>
<path d="M128.699 12.1849C130.824 12.1483 132.054 12.5454 133.799 13.7078L132.899 15.4929C131.349 14.3933 129.472 13.6938 127.61 14.4415C124.729 15.5975 124.699 20.5786 127.664 21.6569C129.24 22.2301 130.504 21.8349 131.954 21.1954L132.868 20.6028C133.192 21.1645 133.487 21.8048 133.771 22.3919C132.569 23.2529 131.157 23.773 129.685 23.8968C128.052 24.0281 126.209 23.6756 124.928 22.5831C122.621 20.6234 122.514 16.2106 124.417 13.9586C125.491 12.6882 127.119 12.2991 128.699 12.1849Z" fill="black"/>
<path d="M137.785 9.63443L139.794 9.63529C139.763 10.5451 139.782 11.5206 139.786 12.4362C141.218 12.45 142.65 12.4455 144.083 12.4226L144.084 14.2548C142.674 14.23 141.193 14.2526 139.776 14.2535C139.782 16.1491 139.688 18.2337 139.793 20.1213C139.839 20.9318 140.213 21.342 140.821 21.7987C141.449 21.8394 141.501 21.8419 142.087 21.7674C142.602 21.7018 143.784 21.0567 144.014 21.1165L144.164 21.4156C144.368 21.8417 144.56 22.3242 144.744 22.763C142.568 23.8575 138.636 24.7648 137.78 21.7591C137.288 20.0309 137.517 16.1602 137.53 14.2483L135.444 14.2547L135.441 12.4344L137.519 12.4351C137.591 11.4868 137.655 10.5768 137.785 9.63443Z" fill="black"/>
<path d="M147.062 12.4321C147.812 12.449 148.592 12.4307 149.345 12.4238C149.34 13.9337 149.091 20.4894 149.559 21.5068C149.631 21.6626 149.754 21.7883 149.922 21.8459C150.388 22.0065 150.991 21.6883 151.399 21.4883C151.458 22.1982 151.552 22.6176 151.547 23.3751C146.667 24.9099 147.063 22.0665 147.071 18.3729C147.088 16.3926 147.085 14.4123 147.062 12.4321Z" fill="black"/>
<path d="M148.055 8.03748C148.243 8.0552 148.853 8.10535 148.975 8.2003C150.144 9.11272 149.727 10.24 148.476 10.6169C147.704 10.6255 147.013 10.3827 146.816 9.55095C146.742 9.2365 146.801 8.90557 146.977 8.63535C147.265 8.18724 147.572 8.14024 148.055 8.03748Z" fill="black"/>
</svg>
