<svg width="35" height="28" viewBox="0 0 35 28" fill="none" xmlns="http://www.w3.org/2000/svg">
<g clip-path="url(#clip0_1408_943)">
<path d="M18.7872 0H27.6939C28.0435 0.249106 28.163 0.341626 28.2191 0.788262C28.3451 1.79271 28.2213 2.85081 28.2486 3.86977C30.2429 3.87012 32.3118 3.82269 34.3009 3.92268C34.6016 3.93779 34.9951 4.39369 34.9609 4.70775C35.0118 9.75642 34.9658 14.8221 34.9796 19.8724C34.9819 20.7329 34.1169 20.8502 33.4 20.793C32.2694 20.7028 30.4811 21.1005 29.5653 20.3245C29.1548 19.9767 29.5373 19.1594 30.0264 19.1175C31.0491 19.0084 32.18 19.0802 33.2148 19.0744L33.2118 5.57823L20.2028 5.58035C17.9264 5.58089 15.4678 5.53595 13.2036 5.59548L13.2074 18.92L20.6775 18.9237C21.968 18.9239 23.702 18.8775 24.9603 18.9575C26.2748 20.1146 27.72 22.1883 28.9065 23.5379C29.5718 24.2946 28.46 25.4965 27.6494 24.6487C26.4223 23.386 25.3046 21.9781 24.1704 20.6264L19.9824 20.6296L18.231 20.6252C17.3223 20.6304 12.2452 20.853 11.8014 20.4144C11.6138 20.2289 11.5597 19.7234 11.5367 19.4724C11.4573 18.6072 11.513 17.6987 11.5144 16.8292L11.5254 11.8122L11.5281 10.0845L11.5254 8.53311L11.5277 6.81309C11.5164 6.28295 11.3307 4.5812 11.7123 4.18782C12.2676 3.61546 17.1977 3.87018 18.2298 3.8746C18.2464 2.84826 18.1266 1.77322 18.2572 0.762664C18.3114 0.343018 18.4595 0.230799 18.7872 0ZM19.9856 3.87102L26.5208 3.87498L26.5216 1.6793L19.9816 1.68158L19.9856 3.87102Z" fill="#15B0C4"/>
<path d="M11.5277 6.81309L11.5253 8.53311C10.2723 8.49573 8.60308 8.47032 7.34849 8.53236L7.35519 10.0912L11.528 10.0845L11.5253 11.8121C8.51683 11.7109 4.71678 11.7857 1.68564 11.8081L1.69988 22.8683C2.23096 22.8604 4.37378 22.8042 4.50651 22.945C6.10846 24.6435 3.02758 24.6657 2.17184 24.5861C1.31217 24.506 0.870185 24.6988 0.274835 24.3616C0.197299 24.2703 0.0723173 24.0908 0.0660619 23.9779C-0.00801461 22.6436 0.0295176 21.0607 0.027332 19.7309L0.0201387 14.2576C0.0196446 13.2899 -0.119331 10.9713 0.339775 10.2376C0.782593 9.96026 4.87129 10.0844 5.62704 10.0859C5.6139 9.40647 5.51206 7.74051 5.7576 7.20721C6.43237 6.55533 10.4668 6.81278 11.5277 6.81309Z" fill="#0E70B8"/>
<path d="M18.2312 20.6252L19.9826 20.6296C19.9941 21.427 20.2447 23.633 19.7104 24.2119C19.299 24.6575 10.6227 24.4509 9.23812 24.4707C8.4179 25.4136 6.98661 27.225 6.17559 28H5.34564C5.3119 27.969 5.27857 27.9374 5.2459 27.9053C4.35248 27.0268 5.403 26.2302 6.01908 25.5573C6.57888 24.9459 7.88573 22.9486 8.63461 22.8117C9.57359 22.6401 11.0882 22.7111 12.0925 22.7119L18.2314 22.7194L18.2312 20.6252Z" fill="#0E70B8"/>
</g>
<defs>
<clipPath id="clip0_1408_943">
<rect width="35" height="28" fill="white"/>
</clipPath>
</defs>
</svg>
